<svg width="110" height="114" viewBox="0 0 42 46" fill="none" xmlns="http://www.w3.org/2000/svg">
<path d="M3.5 11.6665C3.5 9.78089 3.5 8.83808 4.08579 8.25229C4.67157 7.6665 5.61438 7.6665 7.5 7.6665H13.9857C14.8548 7.6665 15.2893 7.6665 15.675 7.8366C16.0606 8.0067 16.3536 8.32761 16.9396 8.96943L21 13.4165H3.5V11.6665Z" fill="#F62CB0"/>
<path d="M4.375 14.375H33.625C35.5106 14.375 36.4534 14.375 37.0392 14.9608C37.625 15.5466 37.625 16.4894 37.625 18.375V33.375C37.625 35.2606 37.625 36.2034 37.0392 36.7892C36.4534 37.375 35.5106 37.375 33.625 37.375H8.375C6.48938 37.375 5.54657 37.375 4.96079 36.7892C4.375 36.2034 4.375 35.2606 4.375 33.375V14.375Z" fill="#2A4157" fill-opacity="0.24" stroke="#F62CB0"/>
</svg>
